<?xml version="1.0" encoding="UTF-8"?>
<svg xmlns="http://www.w3.org/2000/svg" width="771.46997pt" height="794.32758pt" version="1.1" viewBox="0 0 771.46997 794.32758">
 <path style="fill:#1f7a8c" d="M 771.47,385.73 C 771.47,172.71 598.76,0 385.74,0 172.7,0 0,172.7 0,385.73 0,467.5 25.512,543.28 68.914,605.67 68.9257,605.6934 96.852,717.49 0,771.46 c 0,0 268.98,60.07 490.26,-14.508 79.199,-22.234 148.03,-69.121 197.79,-131.83 1.0547,-1.2852 2.0625,-2.6523 3.0703,-3.9727 5.8086,-7.5352 11.438,-15.254 16.715,-23.219 0.0469,-0.0859 0.12109,-0.16797 0.19141,-0.25391 l -0.0469,0.0234 c 40.113,-60.805 63.488,-133.66 63.488,-211.97 z M 443.1,665.64 c -31.691,0 -57.371,-26.398 -57.371,-58.969 0,-32.578 25.68,-58.969 57.371,-58.969 31.691,0 57.348,26.387 57.348,58.969 0.0117,32.566 -25.656,58.969 -57.348,58.969 z M 648.84,483.02 c 0,0 -51.348,58.668 -91.309,0 -44.09,-64.766 86.879,-67.066 -39.277,-276.16 0,0 -20.902,-40.477 -0.76953,-53.219 0,-0.0117 -0.0977,-0.14453 -0.0977,-0.14453 0,0 47.832,-52.379 123.64,93.086 0.0234,0.0234 0,-0.0117 0,0 33.566,59.051 49.91,144.63 7.8164,236.43 z"/>
</svg>
