<?xml version="1.0" encoding="UTF-8" standalone="no"?>
<svg
   xmlns:dc="http://purl.org/dc/elements/1.1/"
   xmlns:cc="http://creativecommons.org/ns#"
   xmlns:rdf="http://www.w3.org/1999/02/22-rdf-syntax-ns#"
   xmlns:svg="http://www.w3.org/2000/svg"
   xmlns="http://www.w3.org/2000/svg"
   xmlns:sodipodi="http://sodipodi.sourceforge.net/DTD/sodipodi-0.dtd"
   xmlns:inkscape="http://www.inkscape.org/namespaces/inkscape"
   width="209.91768mm"
   height="81.784218mm"
   viewBox="0 0 209.91768 81.784218"
   version="1.1"
   id="svg74"
   inkscape:version="1.0.2-2 (e86c870879, 2021-01-15)"
   sodipodi:docname="horizontal.svg">
  <defs
     id="defs68" />
  <sodipodi:namedview
     id="base"
     pagecolor="#ffffff"
     bordercolor="#666666"
     borderopacity="1.0"
     inkscape:pageopacity="0.0"
     inkscape:pageshadow="2"
     inkscape:zoom="0.98994949"
     inkscape:cx="266.9725"
     inkscape:cy="150.57147"
     inkscape:document-units="mm"
     inkscape:current-layer="layer1"
     inkscape:document-rotation="0"
     showgrid="false"
     inkscape:window-width="2240"
     inkscape:window-height="1360"
     inkscape:window-x="-12"
     inkscape:window-y="-12"
     inkscape:window-maximized="1" />
  <metadata
     id="metadata71">
    <rdf:RDF>
      <cc:Work
         rdf:about="">
        <dc:format>image/svg+xml</dc:format>
        <dc:type
           rdf:resource="http://purl.org/dc/dcmitype/StillImage" />
        <dc:title></dc:title>
      </cc:Work>
    </rdf:RDF>
  </metadata>
  <g
     inkscape:label="Layer 1"
     inkscape:groupmode="layer"
     id="layer1"
     transform="translate(0.63740779,-98.959073)">
    <g
       id="g34"
       transform="matrix(0.35277777,0,0,0.35277777,82.321273,122.99612)">
      <g
         id="g36"
         transform="translate(0,-2.422553)">
        <path
           d="M 27.724778,2.422553 H 5.383452 v 94.210412 h 23.28343 c 14.804494,0 22.475913,-7.806006 22.475913,-22.341326 V 66.62022 c 0,-9.959387 -3.095485,-16.957875 -11.036077,-20.053359 v -0.269173 c 6.594729,-3.095485 9.555627,-9.151869 9.555627,-18.842082 v -3.364658 c 0,-14.535321 -6.594728,-21.668395 -21.937567,-21.668395 z M 26.782674,54.23828 c 6.729315,0 9.555628,2.691726 9.555628,11.439835 v 8.209765 c 0,6.998488 -2.691726,9.286455 -7.67142,9.286455 H 20.187945 V 54.23828 Z m 0.538345,-38.357096 c 5.248866,0 7.536833,2.960898 7.536833,9.690213 v 5.248866 c 0,7.536833 -3.364657,9.959387 -8.882696,9.959387 H 20.187945 V 15.881184 Z M 59.352559,2.422553 v 71.734499 c 0,15.073666 7.536833,23.68719 22.072154,23.68719 14.53532,0 22.072157,-8.613524 22.072157,-23.68719 V 2.422553 H 89.499891 v 72.676604 c 0,6.729315 -2.960899,9.151868 -7.671419,9.151868 -4.710521,0 -7.67142,-2.422553 -7.67142,-9.151868 V 2.422553 Z m 76.579601,0 h -22.34132 v 94.210412 h 23.28343 c 14.80449,0 22.47591,-7.806006 22.47591,-22.341326 V 66.62022 c 0,-9.959387 -3.09548,-16.957875 -11.03608,-20.053359 v -0.269173 c 6.59473,-3.095485 9.55563,-9.151869 9.55563,-18.842082 v -3.364658 c 0,-14.535321 -6.59473,-21.668395 -21.93757,-21.668395 z m -0.9421,51.815727 c 6.72932,0 9.55563,2.691726 9.55563,11.439835 v 8.209765 c 0,6.998488 -2.69173,9.286455 -7.67142,9.286455 h -8.47894 V 54.23828 Z m 0.53835,-38.357096 c 5.24886,0 7.53683,2.960898 7.53683,9.690213 v 5.248866 c 0,7.536833 -3.36466,9.959387 -8.8827,9.959387 h -5.78721 V 15.881184 Z M 190.5742,2.422553 h -22.34132 v 94.210412 h 23.28343 c 14.80449,0 22.47591,-7.806006 22.47591,-22.341326 V 66.62022 c 0,-9.959387 -3.09549,-16.957875 -11.03608,-20.053359 v -0.269173 c 6.59473,-3.095485 9.55563,-9.151869 9.55563,-18.842082 v -3.364658 c 0,-14.535321 -6.59473,-21.668395 -21.93757,-21.668395 z m -0.9421,51.815727 c 6.72932,0 9.55563,2.691726 9.55563,11.439835 v 8.209765 c 0,6.998488 -2.69173,9.286455 -7.67142,9.286455 h -8.47894 V 54.23828 Z m 0.53834,-38.357096 c 5.24887,0 7.53684,2.960898 7.53684,9.690213 v 5.248866 c 0,7.536833 -3.36466,9.959387 -8.8827,9.959387 h -5.78721 V 15.881184 Z m 32.70448,80.751781 h 39.16461 V 83.174335 H 237.67941 V 2.422553 h -14.80449 z m 60.42925,-80.751781 h 25.57139 V 2.422553 h -40.37589 v 94.210412 h 40.37589 V 83.174335 H 283.30417 V 55.584143 h 20.32253 v -13.45863 h -20.32253 z m 32.83905,9.151868 c 0,10.766904 3.90301,18.57291 16.28495,29.4744 9.69021,8.478937 12.65111,13.593217 12.65111,20.457118 0,6.729315 -2.9609,9.151869 -7.67142,9.151869 -4.71052,0 -7.67142,-2.422554 -7.67142,-9.151869 v -6.729315 h -13.99698 v 5.787211 c 0,15.073666 7.53684,23.687189 22.07216,23.687189 14.53532,0 22.07215,-8.613523 22.07215,-23.687189 0,-10.766904 -3.903,-18.57291 -16.28494,-29.4744 -9.69021,-8.478937 -12.65111,-13.593217 -12.65111,-20.457118 0,-6.729315 2.69172,-9.286455 7.40224,-9.286455 4.71052,0 7.40225,2.55714 7.40225,9.286455 v 3.903003 h 13.99698 v -2.960899 c 0,-15.073666 -7.40225,-23.687189 -21.80299,-23.687189 -14.40073,0 -21.80298,8.613523 -21.80298,23.687189 z"
           style="fill:#1f7a8c;fill-opacity:1;fill-rule:nonzero;stroke:none"
           id="path38" />
      </g>
    </g>
    <g
       id="g40"
       transform="matrix(0.35277777,0,0,0.35277777,-0.63740667,98.959074)">
      <g
         id="g42"
         transform="matrix(3.502286,0,0,3.502286,-62.536822,-59.199143)">
        <g
           id="g44">
          <path
             d="m 82.145,49.047 c 0,-17.752 -14.393,-32.144 -32.144,-32.144 -17.753,0 -32.145,14.392 -32.145,32.144 0,6.814 2.126,13.129 5.743,18.328 0.001,0.002 2.328,9.318 -5.743,13.816 0,0 22.415,5.006 40.855,-1.209 6.6,-1.853 12.336,-5.76 16.482,-10.986 0.088,-0.107 0.172,-0.221 0.256,-0.331 0.484,-0.628 0.953,-1.271 1.393,-1.935 0.004,-0.007 0.01,-0.014 0.016,-0.021 l -0.004,0.002 c 3.343,-5.067 5.291,-11.138 5.291,-17.664 z M 54.781,72.373 c -2.641,0 -4.781,-2.2 -4.781,-4.914 0,-2.715 2.14,-4.914 4.781,-4.914 2.641,0 4.779,2.199 4.779,4.914 10e-4,2.714 -2.138,4.914 -4.779,4.914 z M 71.926,57.155 c 0,0 -4.279,4.889 -7.609,0 -3.674,-5.397 7.24,-5.589 -3.273,-23.013 0,0 -1.742,-3.373 -0.064,-4.435 0,-0.001 -0.008,-0.012 -0.008,-0.012 0,0 3.986,-4.365 10.303,7.757 0.002,0.002 0,-10e-4 0,0 2.797,4.921 4.159,12.053 0.651,19.703 z"
             style="fill:#1f7a8c;fill-opacity:1;fill-rule:nonzero;stroke:none"
             id="path46" />
        </g>
      </g>
    </g>
  </g>
</svg>
